<mxfile host="app.diagrams.net" agent="Mozilla/5.0 (Macintosh; Intel Mac OS X 10_15_7) AppleWebKit/537.36 (KHTML, like Gecko) Chrome/134.0.0.0 Safari/537.36" version="26.1.1">
  <diagram name="Disinformation Detection Experiments" id="6zVEg0vWxW1A6ctEU3sv">
    <mxGraphModel dx="2074" dy="1155" grid="1" gridSize="10" guides="1" tooltips="1" connect="1" arrows="1" fold="1" page="1" pageScale="1" pageWidth="827" pageHeight="1169" math="0" shadow="0">
      <root>
        <mxCell id="0" />
        <mxCell id="1" parent="0" />
        <mxCell id="2" value="Articles" style="shape=rectangle;whiteSpace=wrap;rounded=1;fillColor=#dae8fc;strokeColor=#6c8ebf;" parent="1" vertex="1">
          <mxGeometry x="340" y="30" width="140" height="60" as="geometry" />
        </mxCell>
        <mxCell id="zyCFUKB4MpaHXsmLGL9N-18" style="edgeStyle=orthogonalEdgeStyle;rounded=0;orthogonalLoop=1;jettySize=auto;html=1;entryX=0;entryY=0.75;entryDx=0;entryDy=0;" edge="1" parent="1" source="3" target="15">
          <mxGeometry relative="1" as="geometry">
            <Array as="points">
              <mxPoint x="130" y="515" />
            </Array>
          </mxGeometry>
        </mxCell>
        <mxCell id="3" value="Experiment 1: Full Text Prompting" style="shape=rectangle;whiteSpace=wrap;rounded=1;fillColor=#f8cecc;strokeColor=#b85450;" parent="1" vertex="1">
          <mxGeometry x="20" y="280" width="220" height="60" as="geometry" />
        </mxCell>
        <mxCell id="4" style="edgeStyle=orthogonalEdgeStyle;endArrow=block;" parent="1" source="2" target="3" edge="1">
          <mxGeometry relative="1" as="geometry" />
        </mxCell>
        <mxCell id="5" value="Extract RDF Triples (LLaMA / Phi-4)" style="shape=rectangle;whiteSpace=wrap;rounded=1;fillColor=#fff2cc;strokeColor=#d6b656;" parent="1" vertex="1">
          <mxGeometry x="300" y="200" width="220" height="60" as="geometry" />
        </mxCell>
        <mxCell id="6" value="Experiment 2: Triple Prompting" style="shape=rectangle;whiteSpace=wrap;rounded=1;fillColor=#f8cecc;strokeColor=#b85450;" parent="1" vertex="1">
          <mxGeometry x="300" y="280" width="220" height="60" as="geometry" />
        </mxCell>
        <mxCell id="7" style="edgeStyle=orthogonalEdgeStyle;endArrow=block;" parent="1" source="2" target="5" edge="1">
          <mxGeometry relative="1" as="geometry" />
        </mxCell>
        <mxCell id="8" style="edgeStyle=orthogonalEdgeStyle;endArrow=block;" parent="1" source="5" target="6" edge="1">
          <mxGeometry relative="1" as="geometry" />
        </mxCell>
        <mxCell id="9" value="Ontology Construction (LLaMA)" style="shape=rectangle;whiteSpace=wrap;rounded=1;fillColor=#e1d5e7;strokeColor=#9673a6;" parent="1" vertex="1">
          <mxGeometry x="560" y="120" width="220" height="60" as="geometry" />
        </mxCell>
        <mxCell id="10" value="Extract Refined Triples&#xa;Aligned to Ontology" style="shape=rectangle;whiteSpace=wrap;rounded=1;fillColor=#fff2cc;strokeColor=#d6b656;" parent="1" vertex="1">
          <mxGeometry x="560" y="200" width="220" height="60" as="geometry" />
        </mxCell>
        <mxCell id="zyCFUKB4MpaHXsmLGL9N-19" style="edgeStyle=orthogonalEdgeStyle;rounded=0;orthogonalLoop=1;jettySize=auto;html=1;entryX=1;entryY=0.75;entryDx=0;entryDy=0;" edge="1" parent="1" source="11" target="15">
          <mxGeometry relative="1" as="geometry">
            <Array as="points">
              <mxPoint x="670" y="515" />
            </Array>
          </mxGeometry>
        </mxCell>
        <mxCell id="11" value="Experiment 3: Ontology-Based Triple Prompting" style="shape=rectangle;whiteSpace=wrap;rounded=1;fillColor=#f8cecc;strokeColor=#b85450;" parent="1" vertex="1">
          <mxGeometry x="560" y="280" width="220" height="60" as="geometry" />
        </mxCell>
        <mxCell id="12" style="edgeStyle=orthogonalEdgeStyle;endArrow=block;" parent="1" source="2" target="9" edge="1">
          <mxGeometry relative="1" as="geometry" />
        </mxCell>
        <mxCell id="13" style="edgeStyle=orthogonalEdgeStyle;endArrow=block;" parent="1" source="9" target="10" edge="1">
          <mxGeometry relative="1" as="geometry" />
        </mxCell>
        <mxCell id="14" style="edgeStyle=orthogonalEdgeStyle;endArrow=block;" parent="1" source="10" target="11" edge="1">
          <mxGeometry relative="1" as="geometry" />
        </mxCell>
        <mxCell id="15" value="Evaluation (Accuracy, Precision, Recall, F1)" style="shape=rectangle;whiteSpace=wrap;rounded=1;fillColor=#d5e8d4;strokeColor=#82b366;" parent="1" vertex="1">
          <mxGeometry x="290" y="470" width="240" height="60" as="geometry" />
        </mxCell>
        <mxCell id="17" style="edgeStyle=orthogonalEdgeStyle;endArrow=block;" parent="1" source="6" target="15" edge="1">
          <mxGeometry relative="1" as="geometry" />
        </mxCell>
      </root>
    </mxGraphModel>
  </diagram>
</mxfile>
